<svg width="25" height="19" viewBox="0 0 16 19" fill="none" xmlns="http://www.w3.org/2000/svg">
<path d="M1.25893 8.79492C1.55967 8.79492 1.84808 8.91439 2.06074 9.12704C2.27339 9.33969 2.39286 9.62811 2.39286 9.92885V17.8664C2.39286 18.1671 2.27339 18.4555 2.06074 18.6682C1.84808 18.8808 1.55967 19.0003 1.25893 19.0003C0.958192 19.0003 0.669773 18.8808 0.45712 18.6682C0.244467 18.4555 0.125 18.1671 0.125 17.8664V9.92885C0.125 9.62811 0.244467 9.33969 0.45712 9.12704C0.669773 8.91439 0.958192 8.79492 1.25893 8.79492ZM6.92857 1.99135V17.8664C6.92857 18.1671 7.04804 18.4555 7.26069 18.6682C7.47334 18.8808 7.76176 19.0003 8.0625 19.0003C8.36324 19.0003 8.65166 18.8808 8.86431 18.6682C9.07696 18.4555 9.19643 18.1671 9.19643 17.8664V1.99135C9.19643 1.69061 9.07696 1.40219 8.86431 1.18954C8.65166 0.976889 8.36324 0.857422 8.0625 0.857422C7.76176 0.857422 7.47334 0.976889 7.26069 1.18954C7.04804 1.40219 6.92857 1.69061 6.92857 1.99135ZM13.7321 5.9601V17.8664C13.7321 18.1671 13.8516 18.4555 14.0643 18.6682C14.2769 18.8808 14.5653 19.0003 14.8661 19.0003C15.1668 19.0003 15.4552 18.8808 15.6679 18.6682C15.8805 18.4555 16 18.1671 16 17.8664V5.9601C16 5.65936 15.8805 5.37094 15.6679 5.15829C15.4552 4.94564 15.1668 4.82617 14.8661 4.82617C14.5653 4.82617 14.2769 4.94564 14.0643 5.15829C13.8516 5.37094 13.7321 5.65936 13.7321 5.9601Z" fill="#47A3D8"/>
</svg>
