<svg width="25" height="19" viewBox="0 0 21 20" fill="none" xmlns="http://www.w3.org/2000/svg">
<path d="M18.5028 2.11164C17.9553 1.44923 17.2677 0.916497 16.4896 0.551809C15.7114 0.187121 14.8621 -0.000440036 14.0028 0.00263663C12.5324 -0.0418843 11.1009 0.478827 10.0028 1.45764C8.90463 0.478827 7.47312 -0.0418843 6.00275 0.00263663C5.1434 -0.000440036 4.29406 0.187121 3.51592 0.551809C2.73778 0.916497 2.05022 1.44923 1.50275 2.11164C0.549754 3.26764 -0.447246 5.36064 0.213754 8.77164C1.26875 14.2186 9.17975 18.6886 9.51375 18.8716C9.66264 18.9547 9.83028 18.9982 10.0008 18.9982C10.1712 18.9982 10.3389 18.9547 10.4878 18.8716C10.8238 18.6846 18.7348 14.2146 19.7878 8.77164C20.4528 5.36064 19.4558 3.26764 18.5028 2.11164ZM17.8288 8.39164C17.0828 12.2426 11.6608 15.8246 10.0028 16.8426C7.66675 15.4326 2.86075 11.8926 2.18175 8.39164C1.66875 5.74564 2.37075 4.20864 3.05075 3.38464C3.41036 2.95075 3.86153 2.60182 4.37191 2.36288C4.88229 2.12395 5.43922 2.00092 6.00275 2.00264C6.60465 1.9575 7.20796 2.06909 7.75389 2.32654C8.29981 2.58399 8.7697 2.97851 9.11775 3.47164C9.20358 3.62957 9.3302 3.7616 9.4844 3.85395C9.63861 3.94631 9.81476 3.99562 9.99451 3.99675C10.1743 3.99787 10.351 3.95076 10.5064 3.86034C10.6617 3.76992 10.79 3.63949 10.8778 3.48264C11.2251 2.98567 11.696 2.58781 12.244 2.32829C12.792 2.06876 13.3982 1.95652 14.0028 2.00264C14.5675 1.99989 15.1258 2.12241 15.6374 2.36139C16.1491 2.60036 16.6014 2.94983 16.9618 3.38464C17.6398 4.20864 18.3418 5.74564 17.8288 8.39164Z" fill="#47A3D8"/>
</svg>
