<svg width="298" height="82" viewBox="0 0 298 82" fill="none" xmlns="http://www.w3.org/2000/svg">
<g clip-path="url(#clip0_201_401)">
<path d="M34.6162 81.8727V73.5588L30.4011 80.5255H29.1328L24.9848 73.5365V81.8727H22.314V69.3535H25.3653L29.8416 77.1613L34.5118 69.3535H37.2498L37.302 81.8727H34.6162Z" fill="white"/>
<path d="M50.0967 70.5305C50.6186 71.0492 51.022 71.6741 51.2795 72.3627C51.537 73.0512 51.6425 73.7871 51.5888 74.52V81.8737H48.7986V80.3851C48.4208 80.9437 47.8862 81.3787 47.2618 81.6355C45.6917 82.2277 43.9564 82.2118 42.3975 81.5909C41.7411 81.3075 41.1776 80.8458 40.7712 80.2586C40.3897 79.6883 40.1895 79.0164 40.1967 78.3308C40.1792 77.814 40.2835 77.3004 40.5012 76.8311C40.7188 76.3619 41.0439 75.9501 41.4501 75.629C42.2856 74.9442 43.6061 74.6093 45.4041 74.6093H48.6345V74.3562C48.663 73.9874 48.6111 73.6167 48.4823 73.2698C48.3535 72.9229 48.1509 72.6079 47.8884 72.3466C47.2305 71.8163 46.3975 71.5508 45.5533 71.6023C44.8492 71.6039 44.1495 71.7143 43.4793 71.9298C42.8527 72.1252 42.2682 72.4357 41.7559 72.8453L40.607 70.7166C41.32 70.1915 42.1244 69.8029 42.9795 69.5704C43.9213 69.3226 44.8928 69.2049 45.8667 69.2205C47.3915 69.1118 48.9016 69.5795 50.0967 70.5305ZM47.4259 79.3729C47.9865 79.0518 48.4147 78.5428 48.6345 77.9363V76.485H45.6503C43.9642 76.485 43.1212 77.0357 43.1212 78.1447C43.1126 78.3909 43.1653 78.6354 43.2747 78.8562C43.3841 79.077 43.5467 79.2674 43.7479 79.4101C44.27 79.7483 44.8872 79.9101 45.5086 79.8715C46.1808 79.8786 46.8427 79.7064 47.4259 79.3729Z" fill="white"/>
<path d="M64.8091 71.8321H58.0947V81.8727H55.2075V69.3535H64.8091V71.8321Z" fill="white"/>
<path d="M75.8355 70.5308C76.3573 71.0495 76.7608 71.6744 77.0183 72.3629C77.2758 73.0515 77.3813 73.7873 77.3276 74.5203V81.874H74.5374V80.3854C74.1596 80.944 73.625 81.379 73.0005 81.6358C72.2381 81.9433 71.4203 82.0903 70.5983 82.0675C69.7528 82.0875 68.913 81.925 68.1363 81.5912C67.4799 81.3077 66.9163 80.8461 66.5099 80.2588C66.1255 79.6899 65.925 79.0171 65.9355 78.3311C65.918 77.8143 66.0222 77.3007 66.2399 76.8314C66.4576 76.3621 66.7826 75.9504 67.1888 75.6293C68.0244 74.9445 69.3374 74.6096 71.1354 74.6096H74.3733V74.3565C74.4018 73.9877 74.3499 73.617 74.2211 73.2701C74.0923 72.9232 73.8897 72.6082 73.6272 72.3469C72.9679 71.8192 72.1359 71.554 71.2921 71.6026C70.5879 71.6041 69.8883 71.7146 69.2181 71.9301C68.5915 72.1254 68.007 72.4359 67.4947 72.8456L66.3458 70.7169C67.057 70.1933 67.8587 69.8048 68.7108 69.5706C69.6601 69.322 70.639 69.2043 71.6203 69.2208C73.1399 69.1188 74.6429 69.5859 75.8355 70.5308ZM73.1647 79.3731C73.7215 79.0477 74.1485 78.5402 74.3733 77.9366V76.4852H71.3891C69.6956 76.4852 68.8525 77.036 68.8525 78.145C68.8447 78.3919 68.8986 78.6368 69.0093 78.8576C69.12 79.0785 69.2841 79.2685 69.4867 79.4103C70.0087 79.7486 70.626 79.9104 71.2473 79.8718C71.9195 79.8789 72.5815 79.7067 73.1647 79.3731Z" fill="white"/>
<path d="M90.0625 76.4021C90.4932 76.888 90.7249 77.5177 90.7115 78.1661C90.7252 78.9103 90.4591 79.6326 89.9655 80.1906C89.3811 80.8174 88.647 81.286 87.8318 81.5527C86.8368 81.8976 85.789 82.0664 84.7357 82.0514C83.7805 82.0499 82.8288 81.935 81.9008 81.709C81.0256 81.4997 80.1825 81.1742 79.394 80.7414L80.2371 78.5606C80.8861 78.9192 81.5815 79.1872 82.3036 79.357C83.0554 79.5431 83.8269 79.638 84.6014 79.6398C85.3956 79.6806 86.1876 79.5246 86.9067 79.1858C87.1508 79.0783 87.359 78.9035 87.507 78.682C87.655 78.4605 87.7366 78.2015 87.7423 77.9354C87.7483 77.7066 87.6909 77.4806 87.5763 77.2823C87.4618 77.084 87.2946 76.921 87.0932 76.8115C86.5377 76.5131 85.9102 76.374 85.2803 76.4096H82.8109V74.4297H85.0491C85.6468 74.4648 86.2427 74.3361 86.7724 74.0576C86.9649 73.9587 87.1256 73.8079 87.2364 73.6224C87.3472 73.4368 87.4036 73.224 87.3991 73.0081C87.3914 72.7758 87.317 72.5506 87.1848 72.3593C87.0525 72.168 86.868 72.0186 86.6531 71.9289C86.0054 71.6354 85.297 71.5002 84.5865 71.5344C83.2199 71.5623 81.8738 71.8715 80.6325 72.4424L79.8864 70.2914C81.4382 69.5501 83.1346 69.1588 84.8551 69.1452C85.8247 69.1337 86.7897 69.2795 87.7124 69.5769C88.4659 69.8116 89.1483 70.2313 89.6969 70.7975C90.1689 71.2736 90.4365 71.9143 90.443 72.5838C90.4513 73.1744 90.2506 73.749 89.876 74.2064C89.4708 74.7099 88.9374 75.0955 88.3317 75.3229C89.0013 75.5075 89.6027 75.8825 90.0625 76.4021Z" fill="white"/>
<path d="M93.7554 69.3535H96.6873V77.5855L103.603 69.3535H106.274V81.8727H103.342V73.6035L96.4486 81.8727H93.7554V69.3535Z" fill="white"/>
<path d="M110.213 69.3535H113.138V74.4297H119.449V69.3535H122.351V81.8727H119.427V76.938H113.115V81.8727H110.191L110.213 69.3535Z" fill="white"/>
<path d="M134.989 81.1815C133.983 80.6641 133.144 79.8715 132.572 78.8965C132.005 77.887 131.707 76.7491 131.707 75.5918C131.707 74.4345 132.005 73.2966 132.572 72.2871C133.154 71.3383 133.985 70.5662 134.974 70.0542C136.056 69.4921 137.262 69.2105 138.481 69.2354C139.614 69.2016 140.738 69.4524 141.748 69.9649C142.657 70.4438 143.391 71.1966 143.845 72.1159L141.607 73.4259C141.28 72.8802 140.814 72.4308 140.256 72.1233C139.713 71.8327 139.105 71.6842 138.488 71.6916C137.986 71.6769 137.486 71.7636 137.018 71.9465C136.55 72.1294 136.124 72.4047 135.765 72.756C135.075 73.5418 134.695 74.5509 134.695 75.5955C134.695 76.6402 135.075 77.6492 135.765 78.435C136.357 78.9843 137.103 79.3395 137.904 79.4526C138.704 79.5657 139.52 79.4314 140.241 79.0677C140.797 78.7607 141.261 78.311 141.584 77.7652L143.822 79.0826C143.351 79.9991 142.612 80.7517 141.704 81.2411C140.71 81.7565 139.601 82.0125 138.481 81.9854C137.268 82.0124 136.068 81.736 134.989 81.1815Z" fill="white"/>
<path d="M155.297 70.5305C155.819 71.0491 156.222 71.6741 156.48 72.3626C156.737 73.0511 156.843 73.787 156.789 74.5199V81.8736H154.029V80.385C153.649 80.9419 153.115 81.3764 152.492 81.6355C151.729 81.9429 150.911 82.0899 150.089 82.0672C149.244 82.0871 148.404 81.9246 147.628 81.5908C146.971 81.3074 146.408 80.8458 146.001 80.2585C145.617 79.6896 145.416 79.0168 145.427 78.3308C145.409 77.814 145.513 77.3003 145.731 76.8311C145.949 76.3618 146.274 75.9501 146.68 75.6289C147.516 74.9442 148.829 74.6092 150.627 74.6092H153.864V74.3562C153.893 73.9873 153.841 73.6167 153.712 73.2698C153.584 72.9228 153.381 72.6079 153.118 72.3466C152.459 71.8188 151.627 71.5537 150.783 71.6022C150.079 71.6038 149.38 71.7143 148.709 71.9297C148.083 72.1251 147.498 72.4356 146.986 72.8452L145.837 70.7165C146.548 70.193 147.35 69.8045 148.202 69.5703C149.156 69.3045 150.143 69.1718 151.134 69.1758C152.642 69.0995 154.124 69.5819 155.297 70.5305ZM152.626 79.3728C153.183 79.0474 153.61 78.5399 153.835 77.9363V76.4849H150.85C149.157 76.4849 148.314 77.0357 148.314 78.1447C148.306 78.3915 148.36 78.6364 148.471 78.8573C148.581 79.0782 148.745 79.2681 148.948 79.41C149.47 79.7492 150.087 79.9111 150.709 79.8715C151.381 79.8778 152.043 79.7057 152.626 79.3728Z" fill="white"/>
<path d="M160.399 69.3535H163.331V74.4297H169.635V69.3535H172.567V81.8727H169.635V76.938H163.331V81.8727H160.399V69.3535Z" fill="white"/>
<path d="M186.414 71.8321H182.035V81.8727H179.11V71.8321H174.701V69.3535H186.421L186.414 71.8321Z" fill="white"/>
<path d="M199.679 76.5289H189.861C190.004 77.4055 190.486 78.1911 191.204 78.7171C191.996 79.2698 192.946 79.5518 193.912 79.521C194.542 79.5399 195.169 79.4295 195.754 79.1964C196.339 78.9634 196.87 78.6128 197.314 78.1664L198.88 79.9676C198.307 80.6355 197.572 81.1477 196.747 81.4562C195.821 81.8106 194.836 81.9849 193.845 81.9698C192.584 81.9995 191.336 81.7182 190.211 81.151C189.2 80.6412 188.358 79.8502 187.787 78.8734C187.205 77.8675 186.908 76.7226 186.929 75.5613C186.911 74.4126 187.199 73.2799 187.764 72.2789C188.302 71.318 189.101 70.5285 190.07 70.0013C191.089 69.4459 192.236 69.1638 193.397 69.1826C194.538 69.1631 195.664 69.4401 196.665 69.9865C197.612 70.5151 198.389 71.3027 198.903 72.2566C199.456 73.2959 199.733 74.4592 199.708 75.6357C199.723 75.8665 199.708 76.1567 199.679 76.5289ZM190.987 72.3757C190.328 72.9464 189.907 73.7432 189.808 74.6086H196.956C196.86 73.7489 196.441 72.9573 195.783 72.3937C195.126 71.8301 194.278 71.5364 193.412 71.5718C192.532 71.5297 191.667 71.8162 190.987 72.3757Z" fill="white"/>
<path d="M210.385 81.8727L207.177 77.5483L203.969 81.8727H200.738L205.61 75.5387L200.947 69.3907H204.207L207.274 73.477L210.385 69.3535H213.548L208.855 75.4568L213.757 81.8355L210.385 81.8727Z" fill="white"/>
<path d="M215.808 69.3535H218.733V74.4297H225.037V69.3535H227.969V81.8727H225.037V76.938H218.733V81.8727H215.808V69.3535Z" fill="white"/>
<path d="M231.908 69.3535H234.84V77.5855L241.755 69.3535H244.426V81.8727H241.494V73.6035L234.608 81.8727H231.908V69.3535Z" fill="white"/>
<path d="M253.566 76.8338H251.29V81.8727H248.366V69.3535H251.29V74.4297H253.655L257.385 69.3833H260.526L255.983 75.3898L260.832 81.8653H257.385L253.566 76.8338Z" fill="white"/>
<path d="M262.846 69.3535H265.778V77.5855L272.694 69.3535H275.365V81.8727H272.433V73.6035L265.547 81.8727H262.846V69.3535Z" fill="white"/>
<path d="M107.513 19.9627H118.487V23.2153C121.106 20.9824 125.947 19.3301 130.968 19.3301C139.712 19.3301 145.591 23.0516 145.591 33.2932V58.4284H134.221V33.2114C134.221 26.9443 132.155 24.3244 125.798 24.3244C123.469 24.3301 121.158 24.7329 118.964 25.5152V58.4284H107.513V19.9627Z" fill="white"/>
<path d="M163.063 56.2322V58.5321H152.089V0H163.459V22.21C166.635 20.2752 170.31 19.3101 174.03 19.4338C184.475 19.4338 191.361 26.4079 191.361 39.2546C191.361 51.8706 184.684 59.1647 174.03 59.1647C169.822 59.1647 166.085 58.2939 163.063 56.2322ZM179.834 39.4481C179.834 27.9486 176.499 23.9815 169.502 23.9815C167.444 23.9932 165.402 24.3427 163.459 25.0161V53.7685C165.431 54.442 167.499 54.7914 169.584 54.8031C176.417 54.8031 179.834 51.0742 179.834 39.4481Z" fill="white"/>
<path d="M89.5924 22.2704V19.9705H100.559V58.4288H89.197V56.3C86.0176 58.2279 82.3441 59.19 78.6255 59.0689C68.1809 59.0689 61.2949 52.0947 61.2949 39.248C61.2949 26.6321 68.0093 19.3379 78.6255 19.3379C82.8108 19.3528 86.5411 20.2087 89.5924 22.2704ZM72.8213 39.0843C72.8213 50.5838 76.1561 54.5509 83.154 54.5509C85.2109 54.538 87.2519 54.1911 89.197 53.5238V24.7341C87.2249 24.0606 85.1563 23.7112 83.072 23.6995C76.2382 23.6995 72.8213 27.4285 72.8213 39.0843Z" fill="white"/>
<path d="M218.494 58.7997C205.065 58.7997 195.754 54.7507 195.754 39.1277C195.754 25.6781 204.103 19.3516 214.756 19.3516C226.283 19.3516 233.198 25.4623 233.198 38.4653C233.19 39.4226 233.11 40.378 232.96 41.3234H206.967C207.206 52.6592 210.466 55.041 220.799 55.041H230.774V58.7625L218.494 58.7997ZM206.967 37.7284H222.545C222.306 26.9435 221.053 23.1401 214.838 23.1401C208.952 23.1401 207.124 26.8616 206.967 37.7284Z" fill="white"/>
<path d="M237.779 58.801V55.0199H249.835C257.945 55.0199 260.646 53.1964 260.646 49.6312C260.736 48.851 260.577 48.0623 260.191 47.3778C259.805 46.6933 259.212 46.1481 258.497 45.8203C256.751 44.8676 254.207 44.1531 251.036 43.3641C247.06 42.3296 243.248 41.3024 241.099 39.0769C240.117 38.1089 239.348 36.9468 238.842 35.6651C238.335 34.3834 238.103 33.0103 238.16 31.6339C238.16 21.7942 246.978 19.5762 254.849 19.5762C258.93 19.5756 263.003 19.9468 267.017 20.6852V22.1366C263.757 21.6602 260.258 23.2233 256.997 23.2233C250.559 23.2233 248.172 24.9724 248.097 28.225C248.097 30.3611 248.888 31.4702 250.402 32.2666C252.148 33.2193 254.535 33.8519 257.393 34.5665C261.287 35.5936 264.629 36.5463 266.935 38.2136C269.479 40.0371 270.665 42.4933 270.59 46.6242C270.501 55.8908 261.757 58.801 250.947 58.801H237.779Z" fill="white"/>
<path d="M255.259 19.5677H276.85V8.93164H288.302V19.5677H297.672V23.2148H288.302V49.392C288.302 53.6718 289.891 54.9371 293.86 54.9371C295.146 54.9056 296.425 54.7461 297.679 54.4607V57.8771C294.856 58.4721 291.978 58.764 289.092 58.7479C282.095 58.7479 276.85 56.515 276.85 47.5834V23.2148H255.782L255.259 19.5677Z" fill="white"/>
<path d="M26.8054 11.8047H53.7152C53.7152 8.67387 52.4686 5.67131 50.2496 3.45751C48.0306 1.2437 45.021 0 41.8829 0L15.3387 0C11.2712 0.00197228 7.37091 1.61487 4.49478 4.48429C1.61865 7.35372 0.00197898 11.2449 2.08645e-06 15.3029V19.3519C-0.000978609 21.1018 0.343768 22.8347 1.01453 24.4516C1.6853 26.0684 2.66892 27.5376 3.90917 28.7749C5.14941 30.0123 6.62196 30.9936 8.24261 31.6628C9.86326 32.332 11.6002 32.6759 13.3542 32.675H45.9862L43.6212 41.1154C43.1474 42.805 42.0905 44.2733 40.637 45.2611L42.5991 49.2729H40.1596L36.974 46.5488C36.78 46.5488 36.586 46.5934 36.3846 46.5934H21.3667C21.0622 46.5897 20.7583 46.5673 20.4565 46.5265L17.2485 49.2729H14.8164L16.8755 45.09C15.7549 44.2625 14.8891 43.1382 14.3763 41.8448C13.7774 40.3303 12.7357 39.0306 11.3866 38.1147C10.0374 37.1988 8.44326 36.709 6.81139 36.7091H2.08645e-06V42.3807C2.08645e-06 46.6367 1.69464 50.7183 4.71111 53.7278C7.72758 56.7372 11.8188 58.4279 16.0847 58.4279H39.9581C42.2062 58.4318 44.4329 57.9934 46.5109 57.1379C48.589 56.2823 50.4775 55.0263 52.0685 53.4418C53.6595 51.8573 54.9217 49.9754 55.7829 47.9037C56.644 45.832 57.0873 43.6112 57.0873 41.3684V30.6653C57.0883 28.7229 56.7055 26.7993 55.9609 25.0045C55.2163 23.2098 54.1244 21.579 52.7477 20.2055C51.371 18.832 49.7364 17.7427 47.9374 16.9998C46.1385 16.2569 44.2104 15.875 42.2634 15.876H32.826L33.9376 20.7363H19.9865L21.4786 15.876C21.7915 14.706 22.4837 13.6721 23.4473 12.9356C24.4108 12.1992 25.5916 11.8015 26.8054 11.8047Z" fill="white"/>
<path d="M37.7124 44.785C37.7124 44.785 39.8908 44.6659 41.1069 41.5622C41.9091 39.1275 42.5422 36.6406 43.0019 34.1191H40.4056L37.7124 44.785Z" fill="white"/>
</g>
<defs>
<clipPath id="clip0_201_401">
<rect width="298" height="82" fill="white"/>
</clipPath>
</defs>
</svg>
