<svg width="182" height="50" viewBox="0 0 182 50" fill="none" xmlns="http://www.w3.org/2000/svg">
<g clip-path="url(#clip0_147_1001)">
<path d="M21.0686 49.9227V44.8533L18.5031 49.1013H17.7312L15.2066 44.8397V49.9227H13.5811V42.2891H15.4382L18.1626 47.0499L21.005 42.2891H22.6715L22.7033 49.9227H21.0686Z" fill="black"/>
<path d="M30.4905 43.0064C30.8081 43.3227 31.0536 43.7038 31.2104 44.1236C31.3671 44.5434 31.4313 44.9921 31.3986 45.439V49.923H29.7004V49.0153C29.4705 49.356 29.1451 49.6212 28.765 49.7778C27.8095 50.1389 26.7533 50.1292 25.8045 49.7506C25.405 49.5777 25.062 49.2963 24.8147 48.9382C24.5825 48.5904 24.4606 48.1808 24.465 47.7627C24.4544 47.4476 24.5178 47.1344 24.6503 46.8483C24.7828 46.5621 24.9806 46.3111 25.2279 46.1153C25.7364 45.6977 26.5401 45.4935 27.6344 45.4935H29.6005V45.3392C29.6179 45.1143 29.5863 44.8883 29.5079 44.6767C29.4295 44.4652 29.3062 44.2731 29.1465 44.1138C28.746 43.7905 28.239 43.6286 27.7252 43.66C27.2967 43.6609 26.8708 43.7283 26.4629 43.8597C26.0815 43.9788 25.7258 44.1681 25.414 44.4179L24.7148 43.1199C25.1487 42.7997 25.6383 42.5628 26.1587 42.421C26.7319 42.2699 27.3232 42.1981 27.9159 42.2077C28.844 42.1414 29.7631 42.4265 30.4905 43.0064ZM28.8649 48.3981C29.2061 48.2024 29.4668 47.892 29.6005 47.5222V46.6372H27.7842C26.7581 46.6372 26.245 46.973 26.245 47.6493C26.2397 47.7994 26.2718 47.9484 26.3384 48.0831C26.4049 48.2177 26.5039 48.3338 26.6264 48.4208C26.9441 48.627 27.3198 48.7257 27.698 48.7022C28.1071 48.7065 28.51 48.6015 28.8649 48.3981Z" fill="black"/>
<path d="M39.4449 43.8004H35.3583V49.9227H33.6011V42.2891H39.4449V43.8004Z" fill="black"/>
<path d="M46.156 43.0064C46.4736 43.3227 46.7192 43.7037 46.8759 44.1236C47.0326 44.5434 47.0968 44.9921 47.0642 45.439V49.923H45.3659V49.0153C45.136 49.3559 44.8106 49.6211 44.4306 49.7777C43.9665 49.9652 43.4688 50.0548 42.9685 50.041C42.4539 50.0531 41.9428 49.9541 41.47 49.7505C41.0705 49.5777 40.7275 49.2962 40.4802 48.9381C40.2462 48.5912 40.1242 48.181 40.1305 47.7627C40.1199 47.4476 40.1834 47.1344 40.3158 46.8482C40.4483 46.5621 40.6461 46.311 40.8934 46.1152C41.4019 45.6977 42.2011 45.4935 43.2954 45.4935H45.266V45.3391C45.2834 45.1142 45.2518 44.8882 45.1734 44.6767C45.0951 44.4652 44.9717 44.2731 44.812 44.1138C44.4107 43.792 43.9043 43.6303 43.3907 43.6599C42.9622 43.6609 42.5364 43.7282 42.1284 43.8596C41.7471 43.9787 41.3913 44.1681 41.0795 44.4178L40.3803 43.1198C40.8131 42.8006 41.3011 42.5637 41.8197 42.4209C42.3974 42.2693 42.9933 42.1975 43.5905 42.2076C44.5154 42.1454 45.4301 42.4302 46.156 43.0064ZM44.5305 48.3981C44.8694 48.1996 45.1293 47.8902 45.266 47.5221V46.6371H43.4498C42.419 46.6371 41.906 46.973 41.906 47.6492C41.9012 47.7997 41.934 47.949 42.0014 48.0837C42.0687 48.2184 42.1686 48.3342 42.2919 48.4207C42.6097 48.627 42.9854 48.7256 43.3635 48.7021C43.7726 48.7064 44.1755 48.6015 44.5305 48.3981Z" fill="black"/>
<path d="M54.8149 46.5875C55.0771 46.8837 55.2181 47.2677 55.21 47.6631C55.2183 48.1168 55.0563 48.5572 54.7559 48.8975C54.4003 49.2797 53.9535 49.5654 53.4573 49.7281C52.8517 49.9384 52.214 50.0413 51.5729 50.0321C50.9915 50.0313 50.4123 49.9612 49.8474 49.8234C49.3148 49.6957 48.8017 49.4973 48.3218 49.2334L48.8349 47.9036C49.2299 48.1223 49.6531 48.2857 50.0926 48.3892C50.5502 48.5027 51.0198 48.5606 51.4912 48.5617C51.9745 48.5865 52.4566 48.4914 52.8942 48.2848C53.0428 48.2193 53.1695 48.1127 53.2596 47.9776C53.3497 47.8426 53.3994 47.6847 53.4028 47.5224C53.4064 47.3829 53.3715 47.2451 53.3018 47.1241C53.2321 47.0032 53.1303 46.9039 53.0077 46.8371C52.6696 46.6551 52.2877 46.5703 51.9044 46.592H50.4014V45.3848H51.7636C52.1274 45.4062 52.4901 45.3277 52.8125 45.1579C52.9296 45.0976 53.0275 45.0056 53.0949 44.8925C53.1623 44.7794 53.1966 44.6496 53.1939 44.5179C53.1892 44.3763 53.144 44.239 53.0635 44.1223C52.983 44.0057 52.8707 43.9146 52.7399 43.8599C52.3457 43.6809 51.9145 43.5985 51.4821 43.6193C50.6503 43.6364 49.831 43.8249 49.0755 44.173L48.6215 42.8614C49.5659 42.4094 50.5984 42.1708 51.6455 42.1625C52.2357 42.1555 52.823 42.2444 53.3846 42.4257C53.8432 42.5689 54.2585 42.8248 54.5924 43.17C54.8797 43.4603 55.0426 43.851 55.0465 44.2592C55.0516 44.6194 54.9294 44.9697 54.7014 45.2486C54.4548 45.5556 54.1302 45.7908 53.7615 45.9294C54.1691 46.042 54.5351 46.2706 54.8149 46.5875Z" fill="black"/>
<path d="M57.063 42.2891H58.8475V47.3086L63.0567 42.2891H64.6822V49.9227H62.8978V44.8805L58.7022 49.9227H57.063V42.2891Z" fill="black"/>
<path d="M67.0795 42.2891H68.8595V45.3843H72.7009V42.2891H74.4672V49.9227H72.6873V46.9137H68.8459V49.9227H67.0659L67.0795 42.2891Z" fill="black"/>
<path d="M82.1588 49.4999C81.5461 49.1844 81.0359 48.7011 80.6877 48.1066C80.3424 47.4911 80.1611 46.7972 80.1611 46.0915C80.1611 45.3859 80.3424 44.692 80.6877 44.0765C81.0418 43.4979 81.5474 43.0271 82.1498 42.7149C82.808 42.3722 83.5419 42.2005 84.2839 42.2157C84.9736 42.1951 85.6575 42.348 86.2727 42.6605C86.8256 42.9525 87.2721 43.4115 87.5486 43.9721L86.1864 44.7709C85.9875 44.4381 85.7039 44.1641 85.3646 43.9766C85.0339 43.7994 84.6636 43.7088 84.2884 43.7134C83.9827 43.7044 83.6783 43.7573 83.3935 43.8688C83.1087 43.9803 82.8493 44.1482 82.6311 44.3624C82.2112 44.8415 81.9797 45.4568 81.9797 46.0938C81.9797 46.7308 82.2112 47.3461 82.6311 47.8252C82.9913 48.1602 83.4456 48.3767 83.9327 48.4457C84.4198 48.5146 84.9164 48.4327 85.3555 48.211C85.6938 48.0238 85.976 47.7496 86.1728 47.4168L87.535 48.2201C87.2481 48.7789 86.7985 49.2378 86.2454 49.5362C85.6404 49.8505 84.9656 50.0066 84.2839 49.9901C83.5457 50.0065 82.8151 49.838 82.1588 49.4999Z" fill="black"/>
<path d="M94.5182 43.0056C94.8358 43.3219 95.0814 43.7029 95.2381 44.1228C95.3948 44.5426 95.4591 44.9913 95.4264 45.4382V49.9222H93.7463V49.0145C93.5152 49.354 93.1902 49.6189 92.8109 49.7769C92.3469 49.9644 91.8491 50.054 91.3488 50.0402C90.8343 50.0523 90.3231 49.9533 89.8504 49.7497C89.4509 49.5769 89.1079 49.2954 88.8606 48.9373C88.6266 48.5904 88.5045 48.1802 88.5109 47.7619C88.5003 47.4468 88.5637 47.1336 88.6962 46.8474C88.8287 46.5613 89.0265 46.3102 89.2738 46.1144C89.7823 45.6969 90.5815 45.4927 91.6758 45.4927H93.6464V45.3383C93.6638 45.1134 93.6322 44.8874 93.5538 44.6759C93.4754 44.4644 93.3521 44.2723 93.1924 44.113C92.7911 43.7912 92.2847 43.6295 91.7711 43.6591C91.3426 43.6601 90.9167 43.7274 90.5088 43.8588C90.1274 43.9779 89.7717 44.1673 89.4599 44.417L88.7607 43.1191C89.1935 42.7998 89.6814 42.5629 90.2 42.4201C90.7809 42.2581 91.3815 42.1771 91.9845 42.1796C92.9021 42.133 93.8046 42.4272 94.5182 43.0056ZM92.8927 48.3973C93.2316 48.1988 93.4915 47.8894 93.6283 47.5213V46.6363H91.812C90.7813 46.6363 90.2682 46.9722 90.2682 47.6484C90.2634 47.7989 90.2962 47.9482 90.3636 48.0829C90.431 48.2176 90.5308 48.3334 90.6541 48.4199C90.9716 48.6268 91.3475 48.7255 91.7257 48.7013C92.1348 48.7052 92.5375 48.6003 92.8927 48.3973Z" fill="black"/>
<path d="M97.6245 42.2891H99.409V45.3843H103.246V42.2891H105.03V49.9227H103.246V46.9137H99.409V49.9227H97.6245V42.2891Z" fill="black"/>
<path d="M113.458 43.8004H110.793V49.9227H109.013V43.8004H106.329V42.2891H113.462L113.458 43.8004Z" fill="black"/>
<path d="M121.531 46.6646H115.556C115.643 47.1991 115.936 47.6782 116.373 47.9989C116.855 48.3359 117.433 48.5078 118.021 48.4891C118.405 48.5006 118.786 48.4332 119.142 48.2912C119.499 48.1491 119.822 47.9353 120.092 47.6631L121.045 48.7614C120.696 49.1687 120.249 49.4809 119.747 49.6691C119.183 49.8852 118.584 49.9915 117.98 49.9822C117.213 50.0003 116.454 49.8288 115.769 49.483C115.153 49.1721 114.641 48.6898 114.293 48.0942C113.939 47.4808 113.759 46.7827 113.771 46.0746C113.76 45.3742 113.936 44.6835 114.28 44.0732C114.607 43.4873 115.093 43.0058 115.683 42.6844C116.303 42.3457 117.001 42.1737 117.708 42.1852C118.402 42.1733 119.088 42.3422 119.697 42.6753C120.273 42.9976 120.746 43.4779 121.059 44.0595C121.396 44.6932 121.564 45.4026 121.549 46.12C121.558 46.2607 121.549 46.4377 121.531 46.6646ZM116.241 44.1322C115.84 44.4801 115.584 44.966 115.524 45.4937H119.874C119.816 44.9695 119.561 44.4868 119.16 44.1432C118.76 43.7995 118.244 43.6204 117.717 43.642C117.181 43.6163 116.655 43.791 116.241 44.1322Z" fill="black"/>
<path d="M128.047 49.9227L126.094 47.2859L124.142 49.9227H122.176L125.141 46.0605L122.303 42.3118H124.287L126.153 44.8034L128.047 42.2891H129.972L127.116 46.0106L130.099 49.9L128.047 49.9227Z" fill="black"/>
<path d="M131.348 42.2891H133.128V45.3843H136.965V42.2891H138.749V49.9227H136.965V46.9137H133.128V49.9227H131.348V42.2891Z" fill="black"/>
<path d="M141.147 42.2891H142.931V47.3086L147.141 42.2891H148.766V49.9227H146.982V44.8805L142.791 49.9227H141.147V42.2891Z" fill="black"/>
<path d="M154.328 46.8502H152.944V49.9227H151.164V42.2891H152.944V45.3843H154.383L156.653 42.3072H158.565L155.8 45.9697L158.751 49.9182H156.653L154.328 46.8502Z" fill="black"/>
<path d="M159.977 42.2891H161.762V47.3086L165.971 42.2891H167.596V49.9227H165.812V44.8805L161.621 49.9227H159.977V42.2891Z" fill="black"/>
<path d="M65.4355 12.1729H72.1149V14.1562C73.7087 12.7946 76.6555 11.7871 79.7114 11.7871C85.0331 11.7871 88.6111 14.0563 88.6111 20.3012V35.6275H81.6911V20.2513C81.6911 16.4299 80.4334 14.8324 76.5647 14.8324C75.1471 14.8359 73.7404 15.0815 72.4055 15.5586V35.6275H65.4355V12.1729Z" fill="black"/>
<path d="M99.2452 34.2879V35.6903H92.5659V0H99.4859V13.5427C101.419 12.3629 103.656 11.7744 105.92 11.8499C112.277 11.8499 116.468 16.1024 116.468 23.9357C116.468 31.6284 112.404 36.0761 105.92 36.0761C103.359 36.0761 101.084 35.5451 99.2452 34.2879ZM109.453 24.0537C109.453 17.0418 107.423 14.6229 103.164 14.6229C101.912 14.63 100.669 14.8431 99.4859 15.2537V32.7857C100.686 33.1963 101.945 33.4094 103.214 33.4165C107.373 33.4165 109.453 31.1428 109.453 24.0537Z" fill="black"/>
<path d="M54.5289 13.5792V12.1768H61.2037V35.6269H54.2883V34.3289C52.3532 35.5044 50.1174 36.0911 47.8541 36.0172C41.4972 36.0172 37.3062 31.7647 37.3062 23.9313C37.3062 16.2387 41.3928 11.791 47.8541 11.791C50.4014 11.8001 52.6718 12.322 54.5289 13.5792ZM44.3215 23.8315C44.3215 30.8434 46.3512 33.2624 50.6103 33.2624C51.8622 33.2545 53.1044 33.043 54.2883 32.6361V15.0814C53.088 14.6707 51.829 14.4577 50.5604 14.4505C46.4011 14.4505 44.3215 16.7243 44.3215 23.8315Z" fill="black"/>
<path d="M132.983 35.8535C124.809 35.8535 119.143 33.3846 119.143 23.8584C119.143 15.6575 124.224 11.7998 130.708 11.7998C137.723 11.7998 141.932 15.5259 141.932 23.4545C141.927 24.0382 141.879 24.6208 141.787 25.1973H125.967C126.113 32.1093 128.097 33.5616 134.386 33.5616H140.456V35.8308L132.983 35.8535ZM125.967 23.0052H135.448C135.303 16.429 134.54 14.1099 130.758 14.1099C127.175 14.1099 126.063 16.3791 125.967 23.0052Z" fill="black"/>
<path d="M144.72 35.8541V33.5486H152.058C156.994 33.5486 158.637 32.4367 158.637 30.2627C158.693 29.7871 158.596 29.3061 158.361 28.8887C158.126 28.4713 157.765 28.1389 157.33 27.9391C156.267 27.3581 154.719 26.9225 152.789 26.4414C150.369 25.8105 148.049 25.1842 146.741 23.8272C146.143 23.237 145.675 22.5284 145.367 21.7469C145.059 20.9653 144.917 20.1281 144.952 19.2888C144.952 13.289 150.319 11.9365 155.109 11.9365C157.593 11.9362 160.072 12.1625 162.515 12.6128V13.4977C160.531 13.2073 158.401 14.1604 156.417 14.1604C152.498 14.1604 151.045 15.2269 151 17.2102C151 18.5127 151.481 19.189 152.403 19.6746C153.466 20.2555 154.919 20.6413 156.658 21.0769C159.028 21.7032 161.062 22.2842 162.465 23.3008C164.014 24.4127 164.735 25.9104 164.69 28.4292C164.636 34.0796 159.314 35.8541 152.734 35.8541H144.72Z" fill="black"/>
<path d="M155.359 11.9307H168.5V5.44531H175.47V11.9307H181.173V14.1546H175.47V30.1163C175.47 32.7259 176.437 33.4974 178.853 33.4974C179.635 33.4782 180.414 33.3809 181.178 33.207V35.2901C179.459 35.6529 177.707 35.8309 175.951 35.8211C171.692 35.8211 168.5 34.4596 168.5 29.0134V14.1546H155.677L155.359 11.9307Z" fill="black"/>
<path d="M16.3146 7.19797H32.6928C32.6928 5.28895 31.9341 3.45812 30.5836 2.10824C29.233 0.758355 27.4013 0 25.4913 0L9.33562 0C6.86003 0.00120261 4.48618 0.984677 2.73567 2.73432C0.985162 4.48397 0.00120447 6.85666 1.26988e-06 9.33103V11.7999C-0.000595614 12.8669 0.209229 13.9236 0.617477 14.9095C1.02573 15.8954 1.62439 16.7912 2.37925 17.5457C3.1341 18.3002 4.03034 18.8985 5.01672 19.3066C6.0031 19.7146 7.06028 19.9244 8.1278 19.9238H27.9887L26.5493 25.0703C26.2609 26.1006 25.6176 26.9959 24.733 27.5983L25.9272 30.0445H24.4424L22.5036 28.3834C22.3855 28.3834 22.2675 28.4106 22.1449 28.4106H13.0045C12.8192 28.4083 12.6342 28.3947 12.4505 28.3698L10.498 30.0445H9.01777L10.271 27.4939C9.58893 26.9893 9.06197 26.3038 8.74987 25.5151C8.38539 24.5917 7.75136 23.7992 6.93023 23.2407C6.1091 22.6822 5.13885 22.3835 4.14563 22.3836H1.26988e-06V25.8419C1.26988e-06 28.437 1.03141 30.9258 2.86733 32.7608C3.77639 33.6694 4.8556 34.3902 6.04334 34.8819C7.23108 35.3737 8.50409 35.6268 9.78969 35.6268H24.3198C25.6881 35.6291 27.0433 35.3619 28.3081 34.8402C29.5728 34.3185 30.7223 33.5526 31.6906 32.5865C32.6589 31.6203 33.4271 30.4728 33.9513 29.2096C34.4754 27.9463 34.7452 26.5922 34.7452 25.2247V18.6984C34.7458 17.514 34.5128 16.341 34.0596 15.2467C33.6064 14.1523 32.9419 13.1579 32.104 12.3204C31.266 11.4829 30.2712 10.8187 29.1763 10.3657C28.0814 9.91274 26.9079 9.6799 25.7229 9.68049H19.979L20.6555 12.6441H12.1645L13.0726 9.68049C13.263 8.96705 13.6843 8.33665 14.2708 7.88759C14.8572 7.43853 15.5759 7.19605 16.3146 7.19797Z" fill="black"/>
<path d="M22.9531 27.3083C22.9531 27.3083 24.279 27.2357 25.0191 25.3431C25.5073 23.8586 25.8927 22.3422 26.1725 20.8047H24.5923L22.9531 27.3083Z" fill="black"/>
</g>
<defs>
<clipPath id="clip0_147_1001">
<rect width="181.373" height="50" fill="white"/>
</clipPath>
</defs>
</svg>
