<svg width="19" height="22" viewBox="0 0 22 22" fill="none" xmlns="http://www.w3.org/2000/svg">
<path d="M1.00013 22H21.0001C21.1435 22 21.2851 21.9692 21.4155 21.9097C21.5459 21.8502 21.662 21.7633 21.7559 21.655C21.8498 21.5467 21.9193 21.4195 21.9597 21.282C22.0001 21.1445 22.0105 20.9999 21.9901 20.858L19.9901 6.858C19.956 6.6198 19.837 6.40191 19.6552 6.24431C19.4734 6.08671 19.2408 5.99997 19.0001 6H16.0001V5C16.0001 3.67392 15.4733 2.40215 14.5357 1.46447C13.598 0.526784 12.3262 0 11.0001 0C9.67405 0 8.40228 0.526784 7.4646 1.46447C6.52692 2.40215 6.00013 3.67392 6.00013 5V6H3.00013C2.7595 5.99997 2.52692 6.08671 2.34507 6.24431C2.16322 6.40191 2.0443 6.6198 2.01013 6.858L0.0101334 20.858C-0.0102198 20.9999 0.0001649 21.1445 0.0405837 21.282C0.0810026 21.4195 0.150511 21.5467 0.244398 21.655C0.338286 21.7633 0.454358 21.8502 0.584748 21.9097C0.715139 21.9692 0.856801 22 1.00013 22ZM8.00013 5C8.00013 4.20435 8.3162 3.44129 8.87881 2.87868C9.44142 2.31607 10.2045 2 11.0001 2C11.7958 2 12.5588 2.31607 13.1215 2.87868C13.6841 3.44129 14.0001 4.20435 14.0001 5V6H8.00013V5ZM3.86713 8H6.00013V11C6.00013 11.2652 6.10549 11.5196 6.29303 11.7071C6.48056 11.8946 6.73492 12 7.00013 12C7.26535 12 7.5197 11.8946 7.70724 11.7071C7.89478 11.5196 8.00013 11.2652 8.00013 11V8H14.0001V11C14.0001 11.2652 14.1055 11.5196 14.293 11.7071C14.4806 11.8946 14.7349 12 15.0001 12C15.2654 12 15.5197 11.8946 15.7072 11.7071C15.8948 11.5196 16.0001 11.2652 16.0001 11V8H18.1331L19.8471 20H2.15313L3.86713 8Z" fill="#47A3D8"/>
</svg>
